<?xml version="1.0" encoding="UTF-8" standalone="no"?>
<!-- Created with Inkscape (http://www.inkscape.org/) -->

<svg
   width="1000"
   height="1000"
   viewBox="0 0 1000 1000"
   version="1.1"
   id="svg1"
   xmlns="http://www.w3.org/2000/svg"
   xmlns:svg="http://www.w3.org/2000/svg">
  <defs
     id="defs1" />
  <g
     id="layer2"
     style="fill:#ffffff;fill-opacity:1">
    <circle
       style="display:inline;fill:#000000;fill-opacity:1;stroke-width:7.33828"
       id="path8"
       cx="500"
       cy="500"
       r="425" />
  </g>
  <g
     id="layer1"
     style="display:inline;fill:#ffffff;fill-opacity:1"
     transform="matrix(0.83435149,0,0,0.83435149,76.263116,72.812043)">
    <g
       id="g3"
       transform="translate(7.4646515,-91.109822)"
       style="fill:#ffffff;fill-opacity:1">
      <g
         id="g2"
         style="fill:#ffffff;fill-opacity:1">
        <path
           style="fill:#ffffff;fill-opacity:1;stroke-width:158.202"
           id="rect1"
           width="266.31299"
           height="163.6566"
           x="634.2453"
           y="318.49182"
           ry="0"
           d="M 345.5178,268.38027 516.34863,207.46968 V 434.9645 L 345.5178,460.85123 Z" />
        <path
           style="fill:#ffffff;fill-opacity:1;stroke-width:218.93"
           id="rect2"
           width="557.18433"
           height="163.6566"
           x="34.835037"
           y="318.49182"
           ry="0"
           d="M 103.92723,354.52061 323.14745,276.35653 V 464.24111 L 103.92723,497.4605 Z" />
      </g>
      <g
         id="use2"
         style="fill:#ffffff;fill-opacity:1"
         transform="translate(0,202.7897)">
        <path
           style="fill:#ffffff;fill-opacity:1;stroke-width:158.202"
           id="path4"
           width="266.31299"
           height="163.6566"
           x="634.2453"
           y="318.49182"
           ry="0"
           d="M 345.5178,304.08464 516.34863,286.57271 V 514.06753 L 345.5178,496.5556 Z" />
        <path
           style="fill:#ffffff;fill-opacity:1;stroke-width:218.93"
           id="path5"
           width="557.18433"
           height="163.6566"
           x="34.835037"
           y="318.49182"
           ry="0"
           d="M 103.92723,328.85018 323.14745,306.37783 V 494.26241 L 103.92723,471.79007 Z" />
      </g>
      <g
         id="use3"
         style="fill:#ffffff;fill-opacity:1"
         transform="translate(0,405.5794)">
        <path
           style="fill:#ffffff;fill-opacity:1;stroke-width:158.202"
           id="path6"
           width="266.31299"
           height="163.6566"
           x="634.2453"
           y="318.49182"
           ry="0"
           d="m 345.5178,339.78901 170.83083,25.88673 V 593.17057 L 345.5178,532.25997 Z" />
        <path
           style="fill:#ffffff;fill-opacity:1;stroke-width:218.93"
           id="path7"
           width="557.18433"
           height="163.6566"
           x="34.835037"
           y="318.49182"
           ry="0"
           d="m 103.92723,303.17974 219.22022,33.21939 0,187.88458 -219.22022,-78.16408 z" />
      </g>
    </g>
    <path
       id="rect8"
       style="display:inline;fill:#ffffff;fill-opacity:1;stroke-width:15.3048"
       d="M 557.36065,116.35985 972.89292,525.9751 557.36065,907.64014 Z" />
  </g>
</svg>
