<?xml version="1.0" encoding="UTF-8" standalone="no"?>
<!-- Created with Inkscape (http://www.inkscape.org/) -->

<svg
   width="48mm"
   height="48mm"
   viewBox="0 0 48 48"
   version="1.1"
   id="svg1"
   xml:space="preserve"
   xmlns="http://www.w3.org/2000/svg"
   xmlns:svg="http://www.w3.org/2000/svg"><defs
     id="defs1"><style
       id="style1"><![CDATA[
.icon_cols {
  display:inline;
  fill:none;
  stroke:#000000;
  stroke-opacity:1;
}
]]></style></defs><g
     id="layer1"><g
       id="i_chevron"
       transform="matrix(2.341467,0,0,2.341467,-4.097604,-6.4390346)"
       class="icon_cols"><path
         d="m 4,9 8,8 8,-8"
         stroke-width="1.5"
         stroke-linecap="round"
         stroke-linejoin="round"
         id="path1" /></g><g
       id="i_close"
       transform="matrix(2.341467,0,0,2.341467,-4.0975806,-4.097604)"
       class="icon_cols"><path
         d="M 19,5 4.99998,19 M 5.00001,5 19,19"
         stroke-width="1.5"
         stroke-linecap="round"
         stroke-linejoin="round"
         id="path1-2" /></g><g
       id="i_plus"
       transform="matrix(2.341467,0,0,2.341467,-4.097604,-4.097604)"
       class="icon_cols"><path
         d="M 4,12 H 20 M 12,4 v 16"
         stroke-width="1.5"
         stroke-linecap="round"
         stroke-linejoin="round"
         id="path1-9" /></g><g
       id="i_reload"
       transform="matrix(2.0959106,0,0,2.0959106,-1.1509478,-0.10293956)"
       class="icon_cols"><path
         d="m 20.4898,14.9907 c -0.6484,1.8403 -1.8774,3.4201 -3.5019,4.5013 -1.6244,1.0812 -3.5563,1.6052 -5.5044,1.4931 C 9.5353,20.873 7.67634,20.1308 6.18668,18.8704 4.69703,17.61 3.65738,15.8996 3.22438,13.997 2.79138,12.0944 2.98849,10.1026 3.78602,8.32177 4.58354,6.54091 5.93827,5.06746 7.64608,4.12343 9.35389,3.17941 11.3223,2.81593 13.2546,3.08779 16.5171,3.54676 18.6725,5.91142 21,8 m 0,0 V 2 m 0,6 h -6"
         stroke-width="1.5"
         stroke-linecap="round"
         stroke-linejoin="round"
         id="path1-5" /></g><g
       style="fill-opacity:1"
       id="i_search"
       transform="matrix(2.341467,0,0,2.341467,-2.9268705,-2.9268705)"
       class="icon_cols"><path
         d="M 20,20 15.8033,15.8033 M 18,10.5 C 18,6.35786 14.6421,3 10.5,3 6.35786,3 3,6.35786 3,10.5 3,14.6421 6.35786,18 10.5,18 14.6421,18 18,14.6421 18,10.5 Z"
         stroke-width="1.5"
         stroke-linecap="round"
         stroke-linejoin="round"
         id="path1-0"
         style="fill-opacity:1" /></g></g></svg>
