<?xml version="1.0" encoding="UTF-8" standalone="no"?>
<!-- Created with Inkscape (http://www.inkscape.org/) -->

<svg
   width="1000"
   height="1000"
   viewBox="0 0 1000 1000"
   version="1.1"
   id="svg1"
   xmlns="http://www.w3.org/2000/svg"
   xmlns:svg="http://www.w3.org/2000/svg">
  <defs
     id="defs1" />
  <g
     id="layer3"
     style="fill:#000000;fill-opacity:1">
    <rect
       style="fill:#000000;fill-opacity:1;stroke-width:8.7"
       id="rect3"
       width="1000"
       height="1000"
       x="0"
       y="0" />
  </g>
  <g
     id="g17"
     style="display:inline;fill:#dbdbdb;fill-opacity:1"
     transform="matrix(0.87316994,0,0,0.87316994,41.21746,52.937008)">
    <g
       id="g16"
       transform="translate(7.4646515,-91.109822)"
       style="fill:#dbdbdb;fill-opacity:1">
      <g
         id="g11"
         style="fill:#dbdbdb;fill-opacity:1">
        <path
           style="fill:#dbdbdb;fill-opacity:1;stroke-width:158.202"
           id="path10"
           width="266.31299"
           height="163.6566"
           x="634.2453"
           y="318.49182"
           ry="0"
           d="M 360.80598,159.34243 595.95877,82.93665 v 299.10186 l -235.15279,32.47212 z" />
        <path
           style="fill:#dbdbdb;fill-opacity:1;stroke-width:218.93"
           id="path11"
           width="557.18433"
           height="163.6566"
           x="34.835037"
           y="318.49182"
           ry="0"
           d="m 21.462062,269.60197 308.259278,-100.15952 0,249.36064 -308.259278,42.56736 z" />
      </g>
      <g
         id="g13"
         style="fill:#dbdbdb;fill-opacity:1"
         transform="translate(0,202.7897)">
        <path
           style="fill:#dbdbdb;fill-opacity:1;stroke-width:158.202"
           id="path12"
           width="266.31299"
           height="163.6566"
           x="634.2453"
           y="318.49182"
           ry="0"
           d="M 360.80598,272.73602 595.95877,250.76919 V 549.87105 L 360.80598,527.90422 Z" />
        <path
           style="fill:#dbdbdb;fill-opacity:1;stroke-width:218.93"
           id="path13"
           width="557.18433"
           height="163.6566"
           x="34.835037"
           y="318.49182"
           ry="0"
           d="M 21.462062,304.43588 329.72134,275.6398 V 525.00044 L 21.462062,496.20436 Z" />
      </g>
      <g
         id="g15"
         style="fill:#dbdbdb;fill-opacity:1"
         transform="translate(0,405.5794)">
        <path
           style="fill:#dbdbdb;fill-opacity:1;stroke-width:158.202"
           id="path14"
           width="266.31299"
           height="163.6566"
           x="634.2453"
           y="318.49182"
           ry="0"
           d="m 360.80598,386.12961 235.15279,32.47212 V 717.70359 L 360.80598,641.29781 Z" />
        <path
           style="fill:#dbdbdb;fill-opacity:1;stroke-width:218.93"
           id="path15"
           width="557.18433"
           height="163.6566"
           x="34.835037"
           y="318.49182"
           ry="0"
           d="m 21.462062,339.26979 308.259278,42.56736 0,249.36065 L 21.462062,531.03827 Z" />
      </g>
    </g>
    <path
       id="path16"
       style="display:inline;fill:#dbdbdb;fill-opacity:1;stroke-width:15.3048"
       d="M 663.29634,-27.627039 1055.3583,511.99999 663.29634,1051.627 Z" />
  </g>
</svg>
